{
    "asset" : {
        "generator" : "Khronos glTF Blender I/O v1.6.16",
        "version" : "2.0"
    },
    "scene" : 0,
    "scenes" : [
        {
            "name" : "Scene",
            "nodes" : [
                0
            ]
        }
    ],
    "nodes" : [
        {
            "mesh" : 0,
            "name" : "Sphere",
            "scale" : [
                1.8037358522415161,
                1.8037358522415161,
                1.8037358522415161
            ]
        }
    ],
    "meshes" : [
        {
            "name" : "Sphere.004",
            "primitives" : [
                {
                    "attributes" : {
                        "POSITION" : 0,
                        "NORMAL" : 1,
                        "TEXCOORD_0" : 2
                    },
                    "indices" : 3
                }
            ]
        }
    ],
    "accessors" : [
        {
            "bufferView" : 0,
            "componentType" : 5126,
            "count" : 5234,
            "max" : [
                1.2844812870025635,
                1.0633437633514404,
                0.9374036192893982
            ],
            "min" : [
                -0.9570250511169434,
                -0.8273375630378723,
                -0.9381712079048157
            ],
            "type" : "VEC3"
        },
        {
            "bufferView" : 1,
            "componentType" : 5126,
            "count" : 5234,
            "type" : "VEC3"
        },
        {
            "bufferView" : 2,
            "componentType" : 5126,
            "count" : 5234,
            "type" : "VEC2"
        },
        {
            "bufferView" : 3,
            "componentType" : 5123,
            "count" : 6408,
            "type" : "SCALAR"
        }
    ],
    "bufferViews" : [
        {
            "buffer" : 0,
            "byteLength" : 62808,
            "byteOffset" : 0
        },
        {
            "buffer" : 0,
            "byteLength" : 62808,
            "byteOffset" : 62808
        },
        {
            "buffer" : 0,
            "byteLength" : 41872,
            "byteOffset" : 125616
        },
        {
            "buffer" : 0,
            "byteLength" : 12816,
            "byteOffset" : 167488
        }
    ],
    "buffers" : [
        {
            "byteLength" : 180304,
            "uri" : "data:application/octet-stream;base64,"
        }
    ]
}
