{
    "asset" : {
        "generator" : "Khronos glTF Blender I/O v1.6.16",
        "version" : "2.0"
    },
    "scene" : 0,
    "scenes" : [
        {
            "name" : "Scene",
            "nodes" : [
                0,
                1,
                2
            ]
        }
    ],
    "nodes" : [
        {
            "mesh" : 0,
            "name" : "Cylinder",
            "rotation" : [
                0.258892297744751,
                -0.017392562702298164,
                -0.06473385542631149,
                0.9635777473449707
            ],
            "scale" : [
                0.4181710481643677,
                0.7744327187538147,
                0.3518909215927124
            ]
        },
        {
            "mesh" : 1,
            "name" : "Sphere",
            "scale" : [
                1.8037358522415161,
                1.8037358522415161,
                1.8037358522415161
            ],
            "translation" : [
                0.03665357455611229,
                1.562995195388794,
                5.7228812693210784e-06
            ]
        },
        {
            "mesh" : 2,
            "name" : "Sphere.003",
            "scale" : [
                1.2682236433029175,
                1.2682236433029175,
                1.2682236433029175
            ],
            "translation" : [
                0,
                3.7661502361297607,
                0
            ]
        }
    ],
    "meshes" : [
        {
            "name" : "Cylinder",
            "primitives" : [
                {
                    "attributes" : {
                        "POSITION" : 0,
                        "NORMAL" : 1,
                        "TEXCOORD_0" : 2
                    },
                    "indices" : 3
                }
            ]
        },
        {
            "name" : "Sphere.004",
            "primitives" : [
                {
                    "attributes" : {
                        "POSITION" : 4,
                        "NORMAL" : 5,
                        "TEXCOORD_0" : 6
                    },
                    "indices" : 7
                }
            ]
        },
        {
            "name" : "Sphere",
            "primitives" : [
                {
                    "attributes" : {
                        "POSITION" : 8,
                        "NORMAL" : 9,
                        "TEXCOORD_0" : 10
                    },
                    "indices" : 11
                }
            ]
        }
    ],
    "accessors" : [
        {
            "bufferView" : 0,
            "componentType" : 5126,
            "count" : 654,
            "max" : [
                0.6531509160995483,
                3.9716076850891113,
                3.782137155532837
            ],
            "min" : [
                -1.6239879131317139,
                -0.10576653480529785,
                -8.031848907470703
            ],
            "type" : "VEC3"
        },
        {
            "bufferView" : 1,
            "componentType" : 5126,
            "count" : 654,
            "type" : "VEC3"
        },
        {
            "bufferView" : 2,
            "componentType" : 5126,
            "count" : 654,
            "type" : "VEC2"
        },
        {
            "bufferView" : 3,
            "componentType" : 5123,
            "count" : 3084,
            "type" : "SCALAR"
        },
        {
            "bufferView" : 4,
            "componentType" : 5126,
            "count" : 1239,
            "max" : [
                2.2470147609710693,
                1.389411449432373,
                0.9377874135971069
            ],
            "min" : [
                -0.9590550661087036,
                -0.8599230051040649,
                -0.9377875328063965
            ],
            "type" : "VEC3"
        },
        {
            "bufferView" : 5,
            "componentType" : 5126,
            "count" : 1239,
            "type" : "VEC3"
        },
        {
            "bufferView" : 6,
            "componentType" : 5126,
            "count" : 1239,
            "type" : "VEC2"
        },
        {
            "bufferView" : 7,
            "componentType" : 5123,
            "count" : 6900,
            "type" : "SCALAR"
        },
        {
            "bufferView" : 8,
            "componentType" : 5126,
            "count" : 601,
            "max" : [
                1.0601518154144287,
                1.1458698511123657,
                1.0380668640136719
            ],
            "min" : [
                -1.130785346031189,
                -1.0001777410507202,
                -1.0380666255950928
            ],
            "type" : "VEC3"
        },
        {
            "bufferView" : 9,
            "componentType" : 5126,
            "count" : 601,
            "type" : "VEC3"
        },
        {
            "bufferView" : 10,
            "componentType" : 5126,
            "count" : 601,
            "type" : "VEC2"
        },
        {
            "bufferView" : 11,
            "componentType" : 5123,
            "count" : 3132,
            "type" : "SCALAR"
        }
    ],
    "bufferViews" : [
        {
            "buffer" : 0,
            "byteLength" : 7848,
            "byteOffset" : 0
        },
        {
            "buffer" : 0,
            "byteLength" : 7848,
            "byteOffset" : 7848
        },
        {
            "buffer" : 0,
            "byteLength" : 5232,
            "byteOffset" : 15696
        },
        {
            "buffer" : 0,
            "byteLength" : 6168,
            "byteOffset" : 20928
        },
        {
            "buffer" : 0,
            "byteLength" : 14868,
            "byteOffset" : 27096
        },
        {
            "buffer" : 0,
            "byteLength" : 14868,
            "byteOffset" : 41964
        },
        {
            "buffer" : 0,
            "byteLength" : 9912,
            "byteOffset" : 56832
        },
        {
            "buffer" : 0,
            "byteLength" : 13800,
            "byteOffset" : 66744
        },
        {
            "buffer" : 0,
            "byteLength" : 7212,
            "byteOffset" : 80544
        },
        {
            "buffer" : 0,
            "byteLength" : 7212,
            "byteOffset" : 87756
        },
        {
            "buffer" : 0,
            "byteLength" : 4808,
            "byteOffset" : 94968
        },
        {
            "buffer" : 0,
            "byteLength" : 6264,
            "byteOffset" : 99776
        }
    ],
    "buffers" : [
        {
            "byteLength" : 106040,
            "uri" : "data:application/octet-stream;base64,"
        }
    ]
}
