<svg width="227" height="219" viewBox="0 0 227 219" fill="none" xmlns="http://www.w3.org/2000/svg">
<g filter="url(#filter0_d)">
<path d="M18 137.911C18 158.911 35.5 196.911 113.5 196.911C191.5 196.911 209 158.911 209 137.911C209 116.911 200.5 92.4105 193.5 82.4109C196 25.9109 183.681 16.9463 176.5 14.4113C168 11.4109 146 25.4109 140.5 37.4113C133 34.9113 120 33.9109 113.5 33.9109C107 33.9109 94 34.9113 86.5 37.4113C81 25.4109 59 11.4109 50.5 14.4113C43.3185 16.9463 31 25.9109 33.5 82.4109C26.5 92.4105 18 116.911 18 137.911Z" fill="url(#paint0_radial)"/>
<path d="M14 137.911C14 149.475 18.8093 165.372 33.8946 178.321C48.9659 191.259 73.8826 200.911 113.5 200.911C153.117 200.911 178.034 191.259 193.105 178.321C208.191 165.372 213 149.475 213 137.911C213 126.919 210.784 115.147 207.706 104.886C204.849 95.3634 201.154 86.827 197.552 81.2691C198.679 53.6139 196.261 36.968 192.369 26.7503C190.372 21.5094 187.951 17.8607 185.335 15.3012C182.696 12.7198 180.033 11.4165 177.831 10.6394C174.44 9.44221 170.419 10.0892 166.835 11.2447C163.086 12.4535 159.056 14.4692 155.224 16.9137C148.795 21.0146 142.294 26.7339 138.532 32.6905C130.411 30.6783 119.308 29.9109 113.5 29.9109C107.692 29.9109 96.5895 30.6783 88.4677 32.6905C84.7056 26.7339 78.2047 21.0146 71.7763 16.9137C67.9443 14.4692 63.9143 12.4535 60.1649 11.2447C56.5813 10.0892 52.5601 9.44221 49.1686 10.6394C46.9671 11.4165 44.3036 12.7198 41.6652 15.3012C39.0491 17.8607 36.6279 21.5094 34.6315 26.7503C30.7392 36.968 28.3212 53.6139 29.4479 81.2691C25.8459 86.827 22.1506 95.3634 19.2937 104.886C16.2155 115.147 14 126.919 14 137.911Z" stroke="black" stroke-width="8" stroke-linejoin="round"/>
</g>
<path d="M55.9004 131.34L56.0172 131.827C56.2291 131.776 56.3837 131.593 56.3992 131.376C56.4146 131.159 56.2874 130.956 56.0848 130.876L55.9004 131.34ZM55.9004 131.34C56.0172 131.827 56.0171 131.827 56.017 131.827L56.0166 131.827L56.0154 131.827L56.0113 131.828L55.9963 131.832L55.9398 131.845C55.8904 131.856 55.8179 131.872 55.7233 131.893C55.5342 131.933 55.2571 131.991 54.9017 132.057C54.191 132.191 53.1667 132.363 51.9061 132.518C49.3865 132.828 45.9156 133.072 42.1161 132.801C38.3165 132.531 34.915 131.799 32.4646 131.136C31.2387 130.804 30.249 130.488 29.5644 130.256C29.222 130.139 28.9558 130.043 28.7744 129.976C28.6837 129.943 28.6141 129.916 28.5668 129.898L28.5127 129.877L28.4984 129.871L28.4945 129.87L28.4934 129.87L28.493 129.869C28.4929 129.869 28.4928 129.869 28.6772 129.405M55.9004 131.34C56.0848 130.876 56.0847 130.876 56.0846 130.876L56.0842 130.875L56.0831 130.875L56.0792 130.874L56.0649 130.868L56.0108 130.847C55.9635 130.829 55.8939 130.802 55.8032 130.769C55.6218 130.702 55.3556 130.606 55.0132 130.489C54.3286 130.257 53.3389 129.941 52.113 129.609C49.6626 128.946 46.2611 128.214 42.4615 127.944C38.662 127.673 35.1911 127.917 32.6715 128.227C31.4109 128.382 30.3866 128.554 29.6759 128.688C29.3205 128.754 29.0434 128.812 28.8543 128.852C28.7597 128.873 28.6872 128.889 28.6378 128.9L28.5813 128.913L28.5663 128.917L28.5622 128.918L28.561 128.918L28.5607 128.918C28.5605 128.918 28.5604 128.918 28.6772 129.405M28.6772 129.405L28.5604 128.918C28.3485 128.969 28.1939 129.152 28.1785 129.369C28.163 129.586 28.2902 129.789 28.4928 129.869L28.6772 129.405Z" fill="black" stroke="black" stroke-linejoin="round"/>
<path d="M55.1609 140.327L55.448 140.736C55.6227 140.613 55.7004 140.394 55.6415 140.188C55.5826 139.983 55.3999 139.838 55.1868 139.827L55.1609 140.327ZM55.1609 140.327C55.448 140.736 55.4479 140.736 55.4478 140.736L55.4475 140.736L55.4465 140.737L55.4432 140.739L55.4313 140.748L55.3867 140.778C55.3477 140.805 55.2904 140.844 55.2155 140.893C55.0657 140.993 54.8456 141.136 54.5612 141.314C53.9925 141.669 53.1661 142.161 52.1301 142.713C50.0595 143.817 47.1442 145.164 43.7703 146.134C40.3963 147.103 37.2105 147.509 34.8699 147.673C33.6988 147.756 32.7372 147.777 32.0668 147.778C31.7315 147.779 31.4689 147.774 31.2892 147.769C31.1993 147.767 31.1302 147.765 31.083 147.763L31.0288 147.76L31.0144 147.76L31.0104 147.76L31.0092 147.76L31.0088 147.759C31.0087 147.759 31.0086 147.759 31.0345 147.26M55.1609 140.327C55.1868 139.827 55.1867 139.827 55.1866 139.827L55.1862 139.827L55.185 139.827L55.181 139.827L55.1666 139.826L55.1124 139.824C55.0653 139.822 54.9961 139.82 54.9062 139.817C54.7265 139.813 54.4639 139.808 54.1286 139.808C53.4582 139.81 52.4966 139.831 51.3255 139.913C48.9849 140.077 45.7991 140.483 42.4251 141.453C39.0512 142.423 36.1359 143.77 34.0653 144.874C33.0293 145.426 32.2029 145.918 31.6342 146.273C31.3498 146.451 31.1297 146.594 30.9799 146.693C30.905 146.743 30.8477 146.782 30.8087 146.808L30.7641 146.839L30.7522 146.847L30.7489 146.85L30.748 146.85L30.7476 146.851C30.7475 146.851 30.7474 146.851 31.0345 147.26M31.0345 147.26L30.7474 146.851C30.5727 146.973 30.495 147.193 30.5539 147.398C30.6129 147.603 30.7955 147.748 31.0086 147.759L31.0345 147.26Z" fill="black" stroke="black" stroke-linejoin="round"/>
<path d="M59.5989 147.244L60.021 147.512C60.1361 147.331 60.1227 147.096 59.9877 146.93C59.8526 146.763 59.6262 146.701 59.4249 146.775L59.5989 147.244ZM59.5989 147.244C60.021 147.512 60.021 147.512 60.0209 147.512L60.0207 147.513L60.02 147.514L60.0179 147.517L60.0099 147.529L59.9799 147.576C59.9537 147.616 59.9149 147.675 59.8638 147.751C59.7618 147.903 59.6106 148.125 59.4123 148.403C59.0158 148.961 58.4305 149.749 57.6717 150.677C56.1552 152.533 53.9406 154.954 51.151 157.211C48.3614 159.468 45.5312 161.128 43.4001 162.224C42.3338 162.772 41.4407 163.18 40.8127 163.452C40.4987 163.587 40.2508 163.689 40.0805 163.757C39.9954 163.791 39.9297 163.817 39.8848 163.834L39.8332 163.854L39.8195 163.859L39.8157 163.86L39.8146 163.861L39.8142 163.861C39.8141 163.861 39.814 163.861 39.64 163.392M59.5989 147.244C59.4249 146.775 59.4248 146.775 59.4247 146.775L59.4243 146.776L59.4232 146.776L59.4194 146.777L59.4057 146.783L59.3541 146.802C59.3092 146.819 59.2435 146.845 59.1584 146.879C58.9881 146.947 58.7402 147.049 58.4262 147.185C57.7982 147.456 56.9051 147.864 55.8388 148.412C53.7077 149.508 50.8775 151.168 48.0879 153.425C45.2983 155.682 43.0837 158.103 41.5672 159.959C40.8084 160.887 40.2231 161.675 39.8266 162.233C39.6283 162.512 39.4771 162.733 39.3751 162.885C39.324 162.961 39.2852 163.02 39.259 163.061L39.229 163.107L39.221 163.119L39.2189 163.123L39.2182 163.124L39.218 163.124C39.2179 163.124 39.2179 163.124 39.64 163.392M39.64 163.392L39.2179 163.124C39.1028 163.305 39.1162 163.54 39.2512 163.707C39.3863 163.874 39.6127 163.936 39.814 163.861L39.64 163.392Z" fill="black" stroke="black" stroke-linejoin="round"/>
<path d="M171.1 131.34L170.983 131.827C170.771 131.776 170.616 131.593 170.601 131.376C170.585 131.159 170.713 130.956 170.915 130.876L171.1 131.34ZM171.1 131.34C170.983 131.827 170.983 131.827 170.983 131.827L170.983 131.827L170.985 131.827L170.989 131.828L171.004 131.832L171.06 131.845C171.11 131.856 171.182 131.872 171.277 131.893C171.466 131.933 171.743 131.991 172.098 132.057C172.809 132.191 173.833 132.363 175.094 132.518C177.614 132.828 181.084 133.072 184.884 132.801C188.683 132.531 192.085 131.799 194.535 131.136C195.761 130.804 196.751 130.488 197.436 130.256C197.778 130.139 198.044 130.043 198.226 129.976C198.316 129.943 198.386 129.916 198.433 129.898L198.487 129.877L198.502 129.871L198.505 129.87L198.507 129.87L198.507 129.869C198.507 129.869 198.507 129.869 198.323 129.405M171.1 131.34C170.915 130.876 170.915 130.876 170.915 130.876L170.916 130.875L170.917 130.875L170.921 130.874L170.935 130.868L170.989 130.847C171.037 130.829 171.106 130.802 171.197 130.769C171.378 130.702 171.644 130.606 171.987 130.489C172.671 130.257 173.661 129.941 174.887 129.609C177.337 128.946 180.739 128.214 184.538 127.944C188.338 127.673 191.809 127.917 194.329 128.227C195.589 128.382 196.613 128.554 197.324 128.688C197.68 128.754 197.957 128.812 198.146 128.852C198.24 128.873 198.313 128.889 198.362 128.9L198.419 128.913L198.434 128.917L198.438 128.918L198.439 128.918L198.439 128.918C198.439 128.918 198.44 128.918 198.323 129.405M198.323 129.405L198.44 128.918C198.652 128.969 198.806 129.152 198.822 129.369C198.837 129.586 198.71 129.789 198.507 129.869L198.323 129.405Z" fill="black" stroke="black" stroke-linejoin="round"/>
<path d="M171.839 140.327L171.552 140.736C171.377 140.613 171.3 140.394 171.359 140.188C171.417 139.983 171.6 139.838 171.813 139.827L171.839 140.327ZM171.839 140.327C171.552 140.736 171.552 140.736 171.552 140.736L171.553 140.736L171.554 140.737L171.557 140.739L171.569 140.748L171.613 140.778C171.652 140.805 171.71 140.844 171.785 140.893C171.934 140.993 172.154 141.136 172.439 141.314C173.007 141.669 173.834 142.161 174.87 142.713C176.94 143.817 179.856 145.164 183.23 146.134C186.604 147.103 189.79 147.509 192.13 147.673C193.301 147.756 194.263 147.777 194.933 147.778C195.268 147.779 195.531 147.774 195.711 147.769C195.801 147.767 195.87 147.765 195.917 147.763L195.971 147.76L195.986 147.76L195.99 147.76L195.991 147.76L195.991 147.759C195.991 147.759 195.991 147.759 195.966 147.26M171.839 140.327C171.813 139.827 171.813 139.827 171.813 139.827L171.814 139.827L171.815 139.827L171.819 139.827L171.833 139.826L171.888 139.824C171.935 139.822 172.004 139.82 172.094 139.817C172.274 139.813 172.536 139.808 172.871 139.808C173.542 139.81 174.503 139.831 175.674 139.913C178.015 140.077 181.201 140.483 184.575 141.453C187.949 142.423 190.864 143.77 192.935 144.874C193.971 145.426 194.797 145.918 195.366 146.273C195.65 146.451 195.87 146.594 196.02 146.693C196.095 146.743 196.152 146.782 196.191 146.808L196.236 146.839L196.248 146.847L196.251 146.85L196.252 146.85L196.252 146.851C196.252 146.851 196.253 146.851 195.966 147.26M195.966 147.26L196.253 146.851C196.427 146.973 196.505 147.193 196.446 147.398C196.387 147.603 196.205 147.748 195.991 147.759L195.966 147.26Z" fill="black" stroke="black" stroke-linejoin="round"/>
<path d="M167.401 147.244L166.979 147.512C166.864 147.331 166.877 147.096 167.012 146.93C167.147 146.763 167.374 146.701 167.575 146.775L167.401 147.244ZM167.401 147.244C166.979 147.512 166.979 147.512 166.979 147.512L166.979 147.513L166.98 147.514L166.982 147.517L166.99 147.529L167.02 147.576C167.046 147.616 167.085 147.675 167.136 147.751C167.238 147.903 167.389 148.125 167.588 148.403C167.984 148.961 168.57 149.749 169.328 150.677C170.845 152.533 173.059 154.954 175.849 157.211C178.639 159.468 181.469 161.128 183.6 162.224C184.666 162.772 185.559 163.18 186.187 163.452C186.501 163.587 186.749 163.689 186.919 163.757C187.005 163.791 187.07 163.817 187.115 163.834L187.167 163.854L187.181 163.859L187.184 163.86L187.185 163.861L187.186 163.861C187.186 163.861 187.186 163.861 187.36 163.392M167.401 147.244C167.575 146.775 167.575 146.775 167.575 146.775L167.576 146.776L167.577 146.776L167.581 146.777L167.594 146.783L167.646 146.802C167.691 146.819 167.757 146.845 167.842 146.879C168.012 146.947 168.26 147.049 168.574 147.185C169.202 147.456 170.095 147.864 171.161 148.412C173.292 149.508 176.123 151.168 178.912 153.425C181.702 155.682 183.916 158.103 185.433 159.959C186.192 160.887 186.777 161.675 187.173 162.233C187.372 162.512 187.523 162.733 187.625 162.885C187.676 162.961 187.715 163.02 187.741 163.061L187.771 163.107L187.779 163.119L187.781 163.123L187.782 163.124L187.782 163.124C187.782 163.124 187.782 163.124 187.36 163.392M187.36 163.392L187.782 163.124C187.897 163.305 187.884 163.54 187.749 163.707C187.614 163.874 187.387 163.936 187.186 163.861L187.36 163.392Z" fill="black" stroke="black" stroke-linejoin="round"/>
<path d="M45.1954 104.014C45.0037 104.162 44.9448 104.425 45.0554 104.64C45.1661 104.855 45.4145 104.96 45.6457 104.889C64.8065 99.0526 84.5726 102.568 95.6232 115.239C95.7743 115.413 96.0241 115.461 96.2286 115.355C96.4331 115.25 96.5395 115.019 96.4865 114.796C94.6728 107.141 87.2731 100.262 77.6684 97.386C68.0352 94.5019 56.1229 95.6183 45.1954 104.014ZM181.354 104.889C181.585 104.96 181.834 104.855 181.945 104.64C182.055 104.425 181.996 104.162 181.805 104.014C170.877 95.6183 158.965 94.5019 149.332 97.386C139.727 100.262 132.327 107.141 130.513 114.796C130.46 115.019 130.567 115.25 130.771 115.355C130.976 115.461 131.226 115.413 131.377 115.239C142.427 102.568 162.193 99.0526 181.354 104.889Z" fill="black" stroke="black" stroke-linejoin="round"/>
<path d="M109.73 140.488L101.476 131.243C100.325 129.954 101.24 127.911 102.967 127.911H113.5H124.034C125.761 127.911 126.676 129.954 125.525 131.243L117.271 140.488C116.453 141.404 116 142.59 116 143.818V146.411C116 150.929 122.895 159.321 131 159.411C136.351 159.47 144.229 157.159 147 146.411C149 158.411 140 166.411 130 166.411C123 166.411 114.5 162.411 113.5 156.911C112.5 162.411 104 166.411 97.0005 166.411C87.0005 166.411 78.0005 158.411 80.0005 146.411C82.7719 157.159 90.6501 159.47 96.0005 159.411C104.106 159.321 111 150.929 111 146.411V143.818C111 142.59 110.548 141.404 109.73 140.488Z" fill="black" stroke="black" stroke-linejoin="round"/>
<defs>
<filter id="filter0_d" x="0" y="0.000244141" width="227" height="218.911" filterUnits="userSpaceOnUse" color-interpolation-filters="sRGB">
<feFlood flood-opacity="0" result="BackgroundImageFix"/>
<feColorMatrix in="SourceAlpha" type="matrix" values="0 0 0 0 0 0 0 0 0 0 0 0 0 0 0 0 0 0 127 0" result="hardAlpha"/>
<feOffset dy="4"/>
<feGaussianBlur stdDeviation="5"/>
<feComposite in2="hardAlpha" operator="out"/>
<feColorMatrix type="matrix" values="0 0 0 0 0 0 0 0 0 0 0 0 0 0 0 0 0 0 0.25 0"/>
<feBlend mode="normal" in2="BackgroundImageFix" result="effect1_dropShadow"/>
<feBlend mode="normal" in="SourceGraphic" in2="effect1_dropShadow" result="shape"/>
</filter>
<radialGradient id="paint0_radial" cx="0" cy="0" r="1" gradientUnits="userSpaceOnUse" gradientTransform="translate(114 69) rotate(90.224) scale(127.912 133.569)">
<stop stop-color="#A9F8FF"/>
<stop offset="1" stop-color="#79B3FB"/>
</radialGradient>
</defs>
</svg>
