<?xml version="1.0" encoding="UTF-8"?>
<svg fill="none" viewBox="0 0 76 55" xmlns="http://www.w3.org/2000/svg">
<path d="m27.847 38.147c-3.2047-2.1725-5.3127-5.844-5.3127-10.011 0-0.2343 0.0172-0.4647 0.0504-0.6898h-7.1766c-3.5034 0-6.5019-2.1463-7.7582-5.1944-1.2935-0.2454-2.6378-0.5827-4.2148-1.0473-0.8331-0.2455-1.4126-1.0005-1.4342-1.8687-0.02161-0.8682 0.51958-1.6512 1.3394-1.9378 1.5307-0.5351 2.8613-0.9145 4.1718-1.1769 1.1632-3.2369 4.2578-5.5516 7.896-5.5516h18.926c1.3275-4.9924 5.8765-8.6699 11.286-8.6699 7.4613 0 13.877 4.4569 16.739 10.847 6.5908 3.0123 11.176 9.6638 11.176 17.391v1.8252c0 11.563-9.3737 20.937-20.937 20.937h-4.4117c-1.6813 0-3.2916-0.3233-4.7687-0.9126h-5.1933c-6.1449 0-11.126-4.9814-11.126-11.126 0-1.0252 0.2731-1.9858 0.7496-2.8138z" fill="#C4C4C4"/>
<path d="m27.847 38.147c-3.2047-2.1725-5.3127-5.844-5.3127-10.011 0-0.2343 0.0172-0.4647 0.0504-0.6898h-7.1766c-3.5034 0-6.5019-2.1463-7.7582-5.1944-1.2935-0.2454-2.6378-0.5827-4.2148-1.0473-0.8331-0.2455-1.4126-1.0005-1.4342-1.8687-0.02161-0.8682 0.51958-1.6512 1.3394-1.9378 1.5307-0.5351 2.8613-0.9145 4.1718-1.1769 1.1632-3.2369 4.2578-5.5516 7.896-5.5516h18.926c1.3275-4.9924 5.8765-8.6699 11.286-8.6699 7.4613 0 13.877 4.4569 16.739 10.847 6.5908 3.0123 11.176 9.6638 11.176 17.391v1.8252c0 11.563-9.3737 20.937-20.937 20.937h-4.4117c-1.6813 0-3.2916-0.3233-4.7687-0.9126h-5.1933c-6.1449 0-11.126-4.9814-11.126-11.126 0-1.0252 0.2731-1.9858 0.7496-2.8138z" fill="url(#a)"/>
<path d="m27.847 38.147c-3.2047-2.1725-5.3127-5.844-5.3127-10.011 0-0.2343 0.0172-0.4647 0.0504-0.6898h-7.1766c-3.5034 0-6.5019-2.1463-7.7582-5.1944-1.2935-0.2454-2.6378-0.5827-4.2148-1.0473-0.8331-0.2455-1.4126-1.0005-1.4342-1.8687-0.02161-0.8682 0.51958-1.6512 1.3394-1.9378 1.5307-0.5351 2.8613-0.9145 4.1718-1.1769 1.1632-3.2369 4.2578-5.5516 7.896-5.5516h18.926c1.3275-4.9924 5.8765-8.6699 11.286-8.6699 7.4613 0 13.877 4.4569 16.739 10.847 6.5908 3.0123 11.176 9.6638 11.176 17.391v1.8252c0 11.563-9.3737 20.937-20.937 20.937h-4.4117c-1.6813 0-3.2916-0.3233-4.7687-0.9126h-5.1933c-6.1449 0-11.126-4.9814-11.126-11.126 0-1.0252 0.2731-1.9858 0.7496-2.8138z" stroke="#000" stroke-linejoin="round" stroke-width="4"/>
<defs>
<radialGradient id="a" cx="0" cy="0" r="1" gradientTransform="translate(44.034 16) rotate(102.03) scale(31.185 44.809)" gradientUnits="userSpaceOnUse">
<stop stop-color="#fff" offset=".34375"/>
<stop stop-color="#F6F6F6" offset=".78125"/>
<stop stop-color="#DBDBDB" offset="1"/>
</radialGradient>
</defs>
</svg>
