<svg fill="none" viewBox="0 0 279 42" xmlns="http://www.w3.org/2000/svg">
<mask id="a" x="0" y="0" width="279" height="42" fill="black" maskUnits="userSpaceOnUse">
<rect width="279" height="42" fill="#fff"/>
<path d="m29.691 6.8908c0.2445 0.14824 0.4242 0.34096 0.5393 0.57815 0.115 0.2372 0.0935 0.51886-0.0647 0.845l-3.6455 5.3369c-0.1582 0.252-0.3308 0.4002-0.5178 0.4447-0.1725 0.0296-0.3882-0.0371-0.6471-0.2001-0.7046-0.5486-1.4812-0.971-2.3297-1.2675-0.8484-0.2965-1.7472-0.4448-2.6964-0.4448-1.1792 0-2.2649 0.2298-3.2572 0.6894-0.9923 0.4595-1.8479 1.0896-2.567 1.8901-0.719 0.8005-1.2798 1.7345-1.6825 2.8018-0.4027 1.0674-0.604 2.2089-0.604 3.4245s0.2013 2.3571 0.604 3.4244c0.4027 1.0526 0.9635 1.9791 1.6825 2.7796 0.7191 0.7857 1.5747 1.4084 2.567 1.8679 0.9923 0.4596 2.078 0.6894 3.2572 0.6894 0.9492 0 1.8552-0.1483 2.718-0.4448 0.8628-0.3113 1.6466-0.7412 2.3513-1.2897 0.2588-0.1631 0.4745-0.2298 0.6471-0.2001 0.1726 0.0296 0.3451 0.163 0.5177 0.4002l3.6887 5.4703c0.1581 0.3261 0.1797 0.6004 0.0647 0.8227-0.1151 0.2224-0.2948 0.4077-0.5393 0.5559-1.3518 0.934-2.8114 1.6604-4.3789 2.1793-1.5532 0.504-3.1926 0.756-4.9183 0.756-1.5243 0-2.9912-0.2001-4.4005-0.6004-1.3949-0.4003-2.7036-0.971-3.9259-1.7122-1.2224-0.7412-2.3369-1.6233-3.3435-2.6462-0.99227-1.0377-1.8479-2.1792-2.567-3.4245-0.71904-1.26-1.2727-2.6091-1.661-4.047-0.38828-1.4528-0.58242-2.9649-0.58242-4.5363s0.19414-3.0761 0.58242-4.5141c0.38828-1.4528 0.94194-2.8092 1.661-4.0693 0.71903-1.2749 1.5747-2.4313 2.567-3.469 1.0066-1.0377 2.1211-1.9198 3.3435-2.6462 1.2223-0.74122 2.531-1.312 3.9259-1.7122 1.4093-0.41509 2.8762-0.62263 4.4005-0.62263 1.7257 0 3.3508 0.25202 4.8751 0.75605 1.5388 0.48921 2.984 1.2008 4.3358 2.1347z"/>
<path d="m34.98 5.4676c0.0144-0.25202 0.1007-0.47439 0.2589-0.66711 0.1725-0.20754 0.3954-0.31131 0.6687-0.31131h6.4066c0.2157 0 0.4386 0.09636 0.6687 0.28908 0.2301 0.17789 0.3451 0.40767 0.3451 0.68934v10.54h10.721v-10.54c0-0.26685 0.0863-0.49663 0.2588-0.68934 0.187-0.19272 0.4243-0.28908 0.7119-0.28908h6.3203c0.2876 0 0.5393 0.07412 0.755 0.22237 0.2157 0.14824 0.3236 0.38543 0.3236 0.71157v31.109c0 0.3261-0.0935 0.5707-0.2804 0.7338-0.187 0.1631-0.4315 0.2446-0.7335 0.2446h-6.385c-0.2876 0-0.5249-0.0815-0.7119-0.2446-0.1725-0.1631-0.2588-0.4077-0.2588-0.7338v-12.63h-10.721v12.63c0 0.3113-0.1006 0.5559-0.302 0.7338-0.1869 0.1631-0.4458 0.2446-0.7765 0.2446h-6.3419c-0.604 0-0.9132-0.2891-0.9276-0.8672v-31.176z"/>
<path d="m77.876 5.3564c0.0144-0.08894 0.0576-0.1853 0.1295-0.28908 0.0863-0.10377 0.1869-0.20013 0.302-0.28907 0.115-0.08895 0.2372-0.15566 0.3667-0.20013 0.1294-0.0593 0.2516-0.08895 0.3667-0.08895h5.5222c0.2445 0 0.453 0.08153 0.6255 0.2446 0.1726 0.14825 0.302 0.28167 0.3883 0.40026l0.5393 1.2675 11.325 30.109c0.1151 0.2965 0.0935 0.5411-0.0647 0.7339-0.1582 0.1778-0.4314 0.2668-0.8197 0.2668h-6.1909c-0.3307 0-0.5896-0.0593-0.7766-0.1779-0.1725-0.1334-0.3091-0.3484-0.4098-0.6449-0.2876-0.756-0.568-1.5047-0.8413-2.2459-0.2732-0.756-0.5464-1.5121-0.8197-2.2681h-11.454c-0.2733 0.756-0.5537 1.5121-0.8413 2.2681-0.2732 0.7412-0.5465 1.4899-0.8197 2.2459-0.187 0.5485-0.5537 0.8228-1.1001 0.8228h-6.3635c-0.2733 0-0.5034-0.0741-0.6903-0.2224-0.1726-0.1482-0.2013-0.3706-0.0863-0.6671l11.713-31.265zm3.926 9.5174c-0.2733 0.756-0.5537 1.5714-0.8413 2.446-0.2732 0.8747-0.5465 1.7567-0.8197 2.6462s-0.5537 1.7715-0.8413 2.6462c-0.2732 0.8598-0.5464 1.6677-0.8197 2.4238h6.6224l-3.3004-10.162z"/>
<path d="m95.045 5.4676c0-0.29649 0.0935-0.53369 0.2804-0.71158 0.2013-0.17789 0.4458-0.26684 0.7334-0.26684h23.232c0.259 0 0.489 0.08153 0.691 0.2446 0.201 0.16307 0.316 0.40768 0.345 0.73382v5.537c0 0.2668-0.094 0.5262-0.281 0.7783-0.172 0.2372-0.424 0.3558-0.755 0.3558h-7.442v24.327c0 0.2668-0.093 0.5114-0.28 0.7338-0.187 0.2075-0.432 0.3113-0.734 0.3113h-6.342c-0.244 0-0.474-0.0964-0.69-0.2891-0.216-0.2075-0.323-0.4595-0.323-0.756v-24.327h-7.4209c-0.2876 0-0.5321-0.0964-0.7334-0.2891-0.1869-0.1927-0.2804-0.4744-0.2804-0.845v-5.537z"/>
<path d="m137.63 5.5121c0-0.31131 0.079-0.55592 0.238-0.73381 0.158-0.19272 0.395-0.28908 0.711-0.28908h13.935c1.482 0 2.869 0.28908 4.164 0.86723 1.294 0.56333 2.423 1.3342 3.386 2.3126 0.964 0.97841 1.719 2.1273 2.265 3.4467 0.561 1.3045 0.842 2.698 0.842 4.1805 0 1.008-0.137 1.9716-0.41 2.8908-0.259 0.9042-0.626 1.7567-1.1 2.5572-0.475 0.7857-1.043 1.5047-1.705 2.1569-0.647 0.6375-1.359 1.186-2.135 1.6456l5.544 10.763c0.1 0.2075 0.23 0.4521 0.388 0.7338 0.158 0.2816 0.237 0.5262 0.237 0.7338 0 0.2372-0.079 0.4225-0.237 0.5559-0.144 0.1186-0.345 0.1779-0.604 0.1779h-7.399c-0.244 0-0.467-0.0741-0.669-0.2224-0.187-0.1482-0.309-0.3484-0.366-0.6004l-5.242-10.162h-3.495v10.029c0 0.6375-0.33 0.9562-0.992 0.9562h-6.407c-0.287 0-0.517-0.0741-0.69-0.2224-0.172-0.163-0.259-0.4077-0.259-0.7338v-31.042zm16.891 9.8731c0-0.4447-0.08-0.8895-0.238-1.3342s-0.381-0.8524-0.668-1.223c-0.288-0.3706-0.633-0.6819-1.036-0.934-0.403-0.252-0.848-0.415-1.337-0.4892-0.403-0.0296-0.784-0.0518-1.144-0.0667-0.345-0.0296-0.726-0.0444-1.143-0.0444h-2.977v8.1608h3.969c0.259 0 0.489-0.0074 0.691-0.0222 0.201-0.0148 0.424-0.0371 0.668-0.0667 0.504-0.0593 0.957-0.2075 1.359-0.4447 0.403-0.2521 0.741-0.556 1.014-0.9117 0.274-0.3707 0.482-0.7783 0.626-1.2231 0.144-0.4595 0.216-0.9265 0.216-1.4009z"/>
<path d="m174.02 21.011c0 1.2305 0.202 2.3794 0.604 3.4467 0.403 1.0674 0.964 2.0013 1.683 2.8018 0.733 0.7857 1.596 1.4084 2.588 1.8679 0.993 0.4448 2.085 0.6671 3.279 0.6671s2.287-0.2223 3.279-0.6671c1.007-0.4595 1.869-1.0822 2.588-1.8679 0.734-0.8005 1.302-1.7344 1.705-2.8018 0.402-1.0673 0.604-2.2162 0.604-3.4467 0-1.2156-0.202-2.3571-0.604-3.4244-0.403-1.0822-0.971-2.0236-1.705-2.8241-0.719-0.8005-1.581-1.4306-2.588-1.8901-0.992-0.4596-2.085-0.6894-3.279-0.6894s-2.286 0.2298-3.279 0.6894c-0.992 0.4595-1.855 1.0896-2.588 1.8901-0.719 0.8005-1.28 1.7419-1.683 2.8241-0.402 1.0673-0.604 2.2088-0.604 3.4244zm-8.326 0.0223c0-1.5714 0.194-3.0761 0.582-4.5141 0.388-1.4528 0.942-2.8092 1.661-4.0693 0.719-1.2749 1.575-2.4313 2.567-3.469 1.007-1.0377 2.121-1.9198 3.344-2.6462 1.222-0.74122 2.531-1.312 3.926-1.7122 1.409-0.41509 2.876-0.62263 4.4-0.62263 1.51 0 2.97 0.20754 4.379 0.62263 1.409 0.40026 2.725 0.97101 3.948 1.7122 1.222 0.7264 2.336 1.6085 3.343 2.6462 1.007 1.0377 1.862 2.1941 2.567 3.469 0.719 1.2601 1.273 2.6165 1.661 4.0693 0.403 1.438 0.604 2.9427 0.604 4.5141s-0.201 3.0835-0.604 4.5363c-0.388 1.4379-0.942 2.787-1.661 4.047-0.705 1.2453-1.56 2.3868-2.567 3.4245-1.007 1.0229-2.121 1.905-3.343 2.6462-1.223 0.7412-2.539 1.3119-3.948 1.7122s-2.869 0.6004-4.379 0.6004c-1.524 0-2.991-0.2001-4.4-0.6004-1.395-0.4003-2.704-0.971-3.926-1.7122-1.223-0.7412-2.337-1.6233-3.344-2.6462-0.992-1.0377-1.848-2.1792-2.567-3.4245-0.719-1.26-1.273-2.6091-1.661-4.047-0.388-1.4528-0.582-2.9649-0.582-4.5363z"/>
<path d="m210.07 21.011c0 1.2305 0.202 2.3794 0.604 3.4467 0.403 1.0674 0.964 2.0013 1.683 2.8018 0.733 0.7857 1.596 1.4084 2.588 1.8679 0.993 0.4448 2.086 0.6671 3.279 0.6671 1.194 0 2.287-0.2223 3.279-0.6671 1.007-0.4595 1.869-1.0822 2.588-1.8679 0.734-0.8005 1.302-1.7344 1.705-2.8018 0.402-1.0673 0.604-2.2162 0.604-3.4467 0-1.2156-0.202-2.3571-0.604-3.4244-0.403-1.0822-0.971-2.0236-1.705-2.8241-0.719-0.8005-1.581-1.4306-2.588-1.8901-0.992-0.4596-2.085-0.6894-3.279-0.6894-1.193 0-2.286 0.2298-3.279 0.6894-0.992 0.4595-1.855 1.0896-2.588 1.8901-0.719 0.8005-1.28 1.7419-1.683 2.8241-0.402 1.0673-0.604 2.2088-0.604 3.4244zm-8.326 0.0223c0-1.5714 0.194-3.0761 0.582-4.5141 0.389-1.4528 0.942-2.8092 1.661-4.0693 0.719-1.2749 1.575-2.4313 2.567-3.469 1.007-1.0377 2.121-1.9198 3.344-2.6462 1.222-0.74122 2.531-1.312 3.926-1.7122 1.409-0.41509 2.876-0.62263 4.4-0.62263 1.51 0 2.97 0.20754 4.379 0.62263 1.409 0.40026 2.725 0.97101 3.948 1.7122 1.222 0.7264 2.336 1.6085 3.343 2.6462 1.007 1.0377 1.862 2.1941 2.567 3.469 0.719 1.2601 1.273 2.6165 1.661 4.0693 0.403 1.438 0.604 2.9427 0.604 4.5141s-0.201 3.0835-0.604 4.5363c-0.388 1.4379-0.942 2.787-1.661 4.047-0.705 1.2453-1.56 2.3868-2.567 3.4245-1.007 1.0229-2.121 1.905-3.343 2.6462-1.223 0.7412-2.539 1.3119-3.948 1.7122s-2.869 0.6004-4.379 0.6004c-1.524 0-2.991-0.2001-4.4-0.6004-1.395-0.4003-2.704-0.971-3.926-1.7122-1.223-0.7412-2.337-1.6233-3.344-2.6462-0.992-1.0377-1.848-2.1792-2.567-3.4245-0.719-1.26-1.272-2.6091-1.661-4.047-0.388-1.4528-0.582-2.9649-0.582-4.5363z"/>
<path d="m241.07 5.4676c0.028-0.26685 0.129-0.49663 0.302-0.68934 0.172-0.19272 0.417-0.28908 0.733-0.28908h7.464c0.532 0 0.877 0.28167 1.035 0.845l5.867 20.191 5.911-20.191c0.201-0.56333 0.568-0.845 1.1-0.845h7.377c0.259 0 0.489 0.09636 0.691 0.28908 0.215 0.17789 0.338 0.40767 0.366 0.68934 0.504 5.2183 1.014 10.399 1.532 15.543 0.532 5.1293 1.05 10.303 1.553 15.521v0.1112c0 0.5781-0.316 0.8672-0.949 0.8672h-6.105c-0.661 0-1.006-0.3261-1.035-0.9784l-1.877-17.189-4.853 17.3c-0.029 0.1482-0.137 0.3261-0.324 0.5336-0.172 0.2076-0.345 0.3114-0.518 0.3114h-5.673c-0.172 0-0.359-0.0964-0.561-0.2891-0.187-0.2076-0.287-0.3929-0.302-0.5559l-4.853-17.256-1.877 17.145c-0.029 0.6523-0.381 0.9784-1.057 0.9784h-6.104c-0.619 0-0.928-0.3261-0.928-0.9784l3.085-31.065z"/>
</mask>
<path d="m29.691 6.8908c0.2445 0.14824 0.4242 0.34096 0.5393 0.57815 0.115 0.2372 0.0935 0.51886-0.0647 0.845l-3.6455 5.3369c-0.1582 0.252-0.3308 0.4002-0.5178 0.4447-0.1725 0.0296-0.3882-0.0371-0.6471-0.2001-0.7046-0.5486-1.4812-0.971-2.3297-1.2675-0.8484-0.2965-1.7472-0.4448-2.6964-0.4448-1.1792 0-2.2649 0.2298-3.2572 0.6894-0.9923 0.4595-1.8479 1.0896-2.567 1.8901-0.719 0.8005-1.2798 1.7345-1.6825 2.8018-0.4027 1.0674-0.604 2.2089-0.604 3.4245s0.2013 2.3571 0.604 3.4244c0.4027 1.0526 0.9635 1.9791 1.6825 2.7796 0.7191 0.7857 1.5747 1.4084 2.567 1.8679 0.9923 0.4596 2.078 0.6894 3.2572 0.6894 0.9492 0 1.8552-0.1483 2.718-0.4448 0.8628-0.3113 1.6466-0.7412 2.3513-1.2897 0.2588-0.1631 0.4745-0.2298 0.6471-0.2001 0.1726 0.0296 0.3451 0.163 0.5177 0.4002l3.6887 5.4703c0.1581 0.3261 0.1797 0.6004 0.0647 0.8227-0.1151 0.2224-0.2948 0.4077-0.5393 0.5559-1.3518 0.934-2.8114 1.6604-4.3789 2.1793-1.5532 0.504-3.1926 0.756-4.9183 0.756-1.5243 0-2.9912-0.2001-4.4005-0.6004-1.3949-0.4003-2.7036-0.971-3.9259-1.7122-1.2224-0.7412-2.3369-1.6233-3.3435-2.6462-0.99227-1.0377-1.8479-2.1792-2.567-3.4245-0.71904-1.26-1.2727-2.6091-1.661-4.047-0.38828-1.4528-0.58242-2.9649-0.58242-4.5363s0.19414-3.0761 0.58242-4.5141c0.38828-1.4528 0.94194-2.8092 1.661-4.0693 0.71903-1.2749 1.5747-2.4313 2.567-3.469 1.0066-1.0377 2.1211-1.9198 3.3435-2.6462 1.2223-0.74122 2.531-1.312 3.9259-1.7122 1.4093-0.41509 2.8762-0.62263 4.4005-0.62263 1.7257 0 3.3508 0.25202 4.8751 0.75605 1.5388 0.48921 2.984 1.2008 4.3358 2.1347z" fill="url(#b)"/>
<path d="m34.98 5.4676c0.0144-0.25202 0.1007-0.47439 0.2589-0.66711 0.1725-0.20754 0.3954-0.31131 0.6687-0.31131h6.4066c0.2157 0 0.4386 0.09636 0.6687 0.28908 0.2301 0.17789 0.3451 0.40767 0.3451 0.68934v10.54h10.721v-10.54c0-0.26685 0.0863-0.49663 0.2588-0.68934 0.187-0.19272 0.4243-0.28908 0.7119-0.28908h6.3203c0.2876 0 0.5393 0.07412 0.755 0.22237 0.2157 0.14824 0.3236 0.38543 0.3236 0.71157v31.109c0 0.3261-0.0935 0.5707-0.2804 0.7338-0.187 0.1631-0.4315 0.2446-0.7335 0.2446h-6.385c-0.2876 0-0.5249-0.0815-0.7119-0.2446-0.1725-0.1631-0.2588-0.4077-0.2588-0.7338v-12.63h-10.721v12.63c0 0.3113-0.1006 0.5559-0.302 0.7338-0.1869 0.1631-0.4458 0.2446-0.7765 0.2446h-6.3419c-0.604 0-0.9132-0.2891-0.9276-0.8672v-31.176z" fill="url(#b)"/>
<path d="m77.876 5.3564c0.0144-0.08894 0.0576-0.1853 0.1295-0.28908 0.0863-0.10377 0.1869-0.20013 0.302-0.28907 0.115-0.08895 0.2372-0.15566 0.3667-0.20013 0.1294-0.0593 0.2516-0.08895 0.3667-0.08895h5.5222c0.2445 0 0.453 0.08153 0.6255 0.2446 0.1726 0.14825 0.302 0.28167 0.3883 0.40026l0.5393 1.2675 11.325 30.109c0.1151 0.2965 0.0935 0.5411-0.0647 0.7339-0.1582 0.1778-0.4314 0.2668-0.8197 0.2668h-6.1909c-0.3307 0-0.5896-0.0593-0.7766-0.1779-0.1725-0.1334-0.3091-0.3484-0.4098-0.6449-0.2876-0.756-0.568-1.5047-0.8413-2.2459-0.2732-0.756-0.5464-1.5121-0.8197-2.2681h-11.454c-0.2733 0.756-0.5537 1.5121-0.8413 2.2681-0.2732 0.7412-0.5465 1.4899-0.8197 2.2459-0.187 0.5485-0.5537 0.8228-1.1001 0.8228h-6.3635c-0.2733 0-0.5034-0.0741-0.6903-0.2224-0.1726-0.1482-0.2013-0.3706-0.0863-0.6671l11.713-31.265zm3.926 9.5174c-0.2733 0.756-0.5537 1.5714-0.8413 2.446-0.2732 0.8747-0.5465 1.7567-0.8197 2.6462s-0.5537 1.7715-0.8413 2.6462c-0.2732 0.8598-0.5464 1.6677-0.8197 2.4238h6.6224l-3.3004-10.162z" fill="url(#b)"/>
<path d="m95.045 5.4676c0-0.29649 0.0935-0.53369 0.2804-0.71158 0.2013-0.17789 0.4458-0.26684 0.7334-0.26684h23.232c0.259 0 0.489 0.08153 0.691 0.2446 0.201 0.16307 0.316 0.40768 0.345 0.73382v5.537c0 0.2668-0.094 0.5262-0.281 0.7783-0.172 0.2372-0.424 0.3558-0.755 0.3558h-7.442v24.327c0 0.2668-0.093 0.5114-0.28 0.7338-0.187 0.2075-0.432 0.3113-0.734 0.3113h-6.342c-0.244 0-0.474-0.0964-0.69-0.2891-0.216-0.2075-0.323-0.4595-0.323-0.756v-24.327h-7.4209c-0.2876 0-0.5321-0.0964-0.7334-0.2891-0.1869-0.1927-0.2804-0.4744-0.2804-0.845v-5.537z" fill="url(#b)"/>
<path d="m137.63 5.5121c0-0.31131 0.079-0.55592 0.238-0.73381 0.158-0.19272 0.395-0.28908 0.711-0.28908h13.935c1.482 0 2.869 0.28908 4.164 0.86723 1.294 0.56333 2.423 1.3342 3.386 2.3126 0.964 0.97841 1.719 2.1273 2.265 3.4467 0.561 1.3045 0.842 2.698 0.842 4.1805 0 1.008-0.137 1.9716-0.41 2.8908-0.259 0.9042-0.626 1.7567-1.1 2.5572-0.475 0.7857-1.043 1.5047-1.705 2.1569-0.647 0.6375-1.359 1.186-2.135 1.6456l5.544 10.763c0.1 0.2075 0.23 0.4521 0.388 0.7338 0.158 0.2816 0.237 0.5262 0.237 0.7338 0 0.2372-0.079 0.4225-0.237 0.5559-0.144 0.1186-0.345 0.1779-0.604 0.1779h-7.399c-0.244 0-0.467-0.0741-0.669-0.2224-0.187-0.1482-0.309-0.3484-0.366-0.6004l-5.242-10.162h-3.495v10.029c0 0.6375-0.33 0.9562-0.992 0.9562h-6.407c-0.287 0-0.517-0.0741-0.69-0.2224-0.172-0.163-0.259-0.4077-0.259-0.7338v-31.042zm16.891 9.8731c0-0.4447-0.08-0.8895-0.238-1.3342s-0.381-0.8524-0.668-1.223c-0.288-0.3706-0.633-0.6819-1.036-0.934-0.403-0.252-0.848-0.415-1.337-0.4892-0.403-0.0296-0.784-0.0518-1.144-0.0667-0.345-0.0296-0.726-0.0444-1.143-0.0444h-2.977v8.1608h3.969c0.259 0 0.489-0.0074 0.691-0.0222 0.201-0.0148 0.424-0.0371 0.668-0.0667 0.504-0.0593 0.957-0.2075 1.359-0.4447 0.403-0.2521 0.741-0.556 1.014-0.9117 0.274-0.3707 0.482-0.7783 0.626-1.2231 0.144-0.4595 0.216-0.9265 0.216-1.4009z" fill="url(#b)"/>
<path d="m174.02 21.011c0 1.2305 0.202 2.3794 0.604 3.4467 0.403 1.0674 0.964 2.0013 1.683 2.8018 0.733 0.7857 1.596 1.4084 2.588 1.8679 0.993 0.4448 2.085 0.6671 3.279 0.6671s2.287-0.2223 3.279-0.6671c1.007-0.4595 1.869-1.0822 2.588-1.8679 0.734-0.8005 1.302-1.7344 1.705-2.8018 0.402-1.0673 0.604-2.2162 0.604-3.4467 0-1.2156-0.202-2.3571-0.604-3.4244-0.403-1.0822-0.971-2.0236-1.705-2.8241-0.719-0.8005-1.581-1.4306-2.588-1.8901-0.992-0.4596-2.085-0.6894-3.279-0.6894s-2.286 0.2298-3.279 0.6894c-0.992 0.4595-1.855 1.0896-2.588 1.8901-0.719 0.8005-1.28 1.7419-1.683 2.8241-0.402 1.0673-0.604 2.2088-0.604 3.4244zm-8.326 0.0223c0-1.5714 0.194-3.0761 0.582-4.5141 0.388-1.4528 0.942-2.8092 1.661-4.0693 0.719-1.2749 1.575-2.4313 2.567-3.469 1.007-1.0377 2.121-1.9198 3.344-2.6462 1.222-0.74122 2.531-1.312 3.926-1.7122 1.409-0.41509 2.876-0.62263 4.4-0.62263 1.51 0 2.97 0.20754 4.379 0.62263 1.409 0.40026 2.725 0.97101 3.948 1.7122 1.222 0.7264 2.336 1.6085 3.343 2.6462 1.007 1.0377 1.862 2.1941 2.567 3.469 0.719 1.2601 1.273 2.6165 1.661 4.0693 0.403 1.438 0.604 2.9427 0.604 4.5141s-0.201 3.0835-0.604 4.5363c-0.388 1.4379-0.942 2.787-1.661 4.047-0.705 1.2453-1.56 2.3868-2.567 3.4245-1.007 1.0229-2.121 1.905-3.343 2.6462-1.223 0.7412-2.539 1.3119-3.948 1.7122s-2.869 0.6004-4.379 0.6004c-1.524 0-2.991-0.2001-4.4-0.6004-1.395-0.4003-2.704-0.971-3.926-1.7122-1.223-0.7412-2.337-1.6233-3.344-2.6462-0.992-1.0377-1.848-2.1792-2.567-3.4245-0.719-1.26-1.273-2.6091-1.661-4.047-0.388-1.4528-0.582-2.9649-0.582-4.5363z" fill="url(#b)"/>
<path d="m210.07 21.011c0 1.2305 0.202 2.3794 0.604 3.4467 0.403 1.0674 0.964 2.0013 1.683 2.8018 0.733 0.7857 1.596 1.4084 2.588 1.8679 0.993 0.4448 2.086 0.6671 3.279 0.6671 1.194 0 2.287-0.2223 3.279-0.6671 1.007-0.4595 1.869-1.0822 2.588-1.8679 0.734-0.8005 1.302-1.7344 1.705-2.8018 0.402-1.0673 0.604-2.2162 0.604-3.4467 0-1.2156-0.202-2.3571-0.604-3.4244-0.403-1.0822-0.971-2.0236-1.705-2.8241-0.719-0.8005-1.581-1.4306-2.588-1.8901-0.992-0.4596-2.085-0.6894-3.279-0.6894-1.193 0-2.286 0.2298-3.279 0.6894-0.992 0.4595-1.855 1.0896-2.588 1.8901-0.719 0.8005-1.28 1.7419-1.683 2.8241-0.402 1.0673-0.604 2.2088-0.604 3.4244zm-8.326 0.0223c0-1.5714 0.194-3.0761 0.582-4.5141 0.389-1.4528 0.942-2.8092 1.661-4.0693 0.719-1.2749 1.575-2.4313 2.567-3.469 1.007-1.0377 2.121-1.9198 3.344-2.6462 1.222-0.74122 2.531-1.312 3.926-1.7122 1.409-0.41509 2.876-0.62263 4.4-0.62263 1.51 0 2.97 0.20754 4.379 0.62263 1.409 0.40026 2.725 0.97101 3.948 1.7122 1.222 0.7264 2.336 1.6085 3.343 2.6462 1.007 1.0377 1.862 2.1941 2.567 3.469 0.719 1.2601 1.273 2.6165 1.661 4.0693 0.403 1.438 0.604 2.9427 0.604 4.5141s-0.201 3.0835-0.604 4.5363c-0.388 1.4379-0.942 2.787-1.661 4.047-0.705 1.2453-1.56 2.3868-2.567 3.4245-1.007 1.0229-2.121 1.905-3.343 2.6462-1.223 0.7412-2.539 1.3119-3.948 1.7122s-2.869 0.6004-4.379 0.6004c-1.524 0-2.991-0.2001-4.4-0.6004-1.395-0.4003-2.704-0.971-3.926-1.7122-1.223-0.7412-2.337-1.6233-3.344-2.6462-0.992-1.0377-1.848-2.1792-2.567-3.4245-0.719-1.26-1.272-2.6091-1.661-4.047-0.388-1.4528-0.582-2.9649-0.582-4.5363z" fill="url(#b)"/>
<path d="m241.07 5.4676c0.028-0.26685 0.129-0.49663 0.302-0.68934 0.172-0.19272 0.417-0.28908 0.733-0.28908h7.464c0.532 0 0.877 0.28167 1.035 0.845l5.867 20.191 5.911-20.191c0.201-0.56333 0.568-0.845 1.1-0.845h7.377c0.259 0 0.489 0.09636 0.691 0.28908 0.215 0.17789 0.338 0.40767 0.366 0.68934 0.504 5.2183 1.014 10.399 1.532 15.543 0.532 5.1293 1.05 10.303 1.553 15.521v0.1112c0 0.5781-0.316 0.8672-0.949 0.8672h-6.105c-0.661 0-1.006-0.3261-1.035-0.9784l-1.877-17.189-4.853 17.3c-0.029 0.1482-0.137 0.3261-0.324 0.5336-0.172 0.2076-0.345 0.3114-0.518 0.3114h-5.673c-0.172 0-0.359-0.0964-0.561-0.2891-0.187-0.2076-0.287-0.3929-0.302-0.5559l-4.853-17.256-1.877 17.145c-0.029 0.6523-0.381 0.9784-1.057 0.9784h-6.104c-0.619 0-0.928-0.3261-0.928-0.9784l3.085-31.065z" fill="url(#b)"/>
<path d="m29.691 6.8908c0.2445 0.14824 0.4242 0.34096 0.5393 0.57815 0.115 0.2372 0.0935 0.51886-0.0647 0.845l-3.6455 5.3369c-0.1582 0.252-0.3308 0.4002-0.5178 0.4447-0.1725 0.0296-0.3882-0.0371-0.6471-0.2001-0.7046-0.5486-1.4812-0.971-2.3297-1.2675-0.8484-0.2965-1.7472-0.4448-2.6964-0.4448-1.1792 0-2.2649 0.2298-3.2572 0.6894-0.9923 0.4595-1.8479 1.0896-2.567 1.8901-0.719 0.8005-1.2798 1.7345-1.6825 2.8018-0.4027 1.0674-0.604 2.2089-0.604 3.4245s0.2013 2.3571 0.604 3.4244c0.4027 1.0526 0.9635 1.9791 1.6825 2.7796 0.7191 0.7857 1.5747 1.4084 2.567 1.8679 0.9923 0.4596 2.078 0.6894 3.2572 0.6894 0.9492 0 1.8552-0.1483 2.718-0.4448 0.8628-0.3113 1.6466-0.7412 2.3513-1.2897 0.2588-0.1631 0.4745-0.2298 0.6471-0.2001 0.1726 0.0296 0.3451 0.163 0.5177 0.4002l3.6887 5.4703c0.1581 0.3261 0.1797 0.6004 0.0647 0.8227-0.1151 0.2224-0.2948 0.4077-0.5393 0.5559-1.3518 0.934-2.8114 1.6604-4.3789 2.1793-1.5532 0.504-3.1926 0.756-4.9183 0.756-1.5243 0-2.9912-0.2001-4.4005-0.6004-1.3949-0.4003-2.7036-0.971-3.9259-1.7122-1.2224-0.7412-2.3369-1.6233-3.3435-2.6462-0.99227-1.0377-1.8479-2.1792-2.567-3.4245-0.71904-1.26-1.2727-2.6091-1.661-4.047-0.38828-1.4528-0.58242-2.9649-0.58242-4.5363s0.19414-3.0761 0.58242-4.5141c0.38828-1.4528 0.94194-2.8092 1.661-4.0693 0.71903-1.2749 1.5747-2.4313 2.567-3.469 1.0066-1.0377 2.1211-1.9198 3.3435-2.6462 1.2223-0.74122 2.531-1.312 3.9259-1.7122 1.4093-0.41509 2.8762-0.62263 4.4005-0.62263 1.7257 0 3.3508 0.25202 4.8751 0.75605 1.5388 0.48921 2.984 1.2008 4.3358 2.1347z" mask="url(#a)" stroke="#000" stroke-width="8"/>
<path d="m34.98 5.4676c0.0144-0.25202 0.1007-0.47439 0.2589-0.66711 0.1725-0.20754 0.3954-0.31131 0.6687-0.31131h6.4066c0.2157 0 0.4386 0.09636 0.6687 0.28908 0.2301 0.17789 0.3451 0.40767 0.3451 0.68934v10.54h10.721v-10.54c0-0.26685 0.0863-0.49663 0.2588-0.68934 0.187-0.19272 0.4243-0.28908 0.7119-0.28908h6.3203c0.2876 0 0.5393 0.07412 0.755 0.22237 0.2157 0.14824 0.3236 0.38543 0.3236 0.71157v31.109c0 0.3261-0.0935 0.5707-0.2804 0.7338-0.187 0.1631-0.4315 0.2446-0.7335 0.2446h-6.385c-0.2876 0-0.5249-0.0815-0.7119-0.2446-0.1725-0.1631-0.2588-0.4077-0.2588-0.7338v-12.63h-10.721v12.63c0 0.3113-0.1006 0.5559-0.302 0.7338-0.1869 0.1631-0.4458 0.2446-0.7765 0.2446h-6.3419c-0.604 0-0.9132-0.2891-0.9276-0.8672v-31.176z" mask="url(#a)" stroke="#000" stroke-width="8"/>
<path d="m77.876 5.3564c0.0144-0.08894 0.0576-0.1853 0.1295-0.28908 0.0863-0.10377 0.1869-0.20013 0.302-0.28907 0.115-0.08895 0.2372-0.15566 0.3667-0.20013 0.1294-0.0593 0.2516-0.08895 0.3667-0.08895h5.5222c0.2445 0 0.453 0.08153 0.6255 0.2446 0.1726 0.14825 0.302 0.28167 0.3883 0.40026l0.5393 1.2675 11.325 30.109c0.1151 0.2965 0.0935 0.5411-0.0647 0.7339-0.1582 0.1778-0.4314 0.2668-0.8197 0.2668h-6.1909c-0.3307 0-0.5896-0.0593-0.7766-0.1779-0.1725-0.1334-0.3091-0.3484-0.4098-0.6449-0.2876-0.756-0.568-1.5047-0.8413-2.2459-0.2732-0.756-0.5464-1.5121-0.8197-2.2681h-11.454c-0.2733 0.756-0.5537 1.5121-0.8413 2.2681-0.2732 0.7412-0.5465 1.4899-0.8197 2.2459-0.187 0.5485-0.5537 0.8228-1.1001 0.8228h-6.3635c-0.2733 0-0.5034-0.0741-0.6903-0.2224-0.1726-0.1482-0.2013-0.3706-0.0863-0.6671l11.713-31.265zm3.926 9.5174c-0.2733 0.756-0.5537 1.5714-0.8413 2.446-0.2732 0.8747-0.5465 1.7567-0.8197 2.6462s-0.5537 1.7715-0.8413 2.6462c-0.2732 0.8598-0.5464 1.6677-0.8197 2.4238h6.6224l-3.3004-10.162z" mask="url(#a)" stroke="#000" stroke-width="8"/>
<path d="m95.045 5.4676c0-0.29649 0.0935-0.53369 0.2804-0.71158 0.2013-0.17789 0.4458-0.26684 0.7334-0.26684h23.232c0.259 0 0.489 0.08153 0.691 0.2446 0.201 0.16307 0.316 0.40768 0.345 0.73382v5.537c0 0.2668-0.094 0.5262-0.281 0.7783-0.172 0.2372-0.424 0.3558-0.755 0.3558h-7.442v24.327c0 0.2668-0.093 0.5114-0.28 0.7338-0.187 0.2075-0.432 0.3113-0.734 0.3113h-6.342c-0.244 0-0.474-0.0964-0.69-0.2891-0.216-0.2075-0.323-0.4595-0.323-0.756v-24.327h-7.4209c-0.2876 0-0.5321-0.0964-0.7334-0.2891-0.1869-0.1927-0.2804-0.4744-0.2804-0.845v-5.537z" mask="url(#a)" stroke="#000" stroke-width="8"/>
<path d="m137.63 5.5121c0-0.31131 0.079-0.55592 0.238-0.73381 0.158-0.19272 0.395-0.28908 0.711-0.28908h13.935c1.482 0 2.869 0.28908 4.164 0.86723 1.294 0.56333 2.423 1.3342 3.386 2.3126 0.964 0.97841 1.719 2.1273 2.265 3.4467 0.561 1.3045 0.842 2.698 0.842 4.1805 0 1.008-0.137 1.9716-0.41 2.8908-0.259 0.9042-0.626 1.7567-1.1 2.5572-0.475 0.7857-1.043 1.5047-1.705 2.1569-0.647 0.6375-1.359 1.186-2.135 1.6456l5.544 10.763c0.1 0.2075 0.23 0.4521 0.388 0.7338 0.158 0.2816 0.237 0.5262 0.237 0.7338 0 0.2372-0.079 0.4225-0.237 0.5559-0.144 0.1186-0.345 0.1779-0.604 0.1779h-7.399c-0.244 0-0.467-0.0741-0.669-0.2224-0.187-0.1482-0.309-0.3484-0.366-0.6004l-5.242-10.162h-3.495v10.029c0 0.6375-0.33 0.9562-0.992 0.9562h-6.407c-0.287 0-0.517-0.0741-0.69-0.2224-0.172-0.163-0.259-0.4077-0.259-0.7338v-31.042zm16.891 9.8731c0-0.4447-0.08-0.8895-0.238-1.3342s-0.381-0.8524-0.668-1.223c-0.288-0.3706-0.633-0.6819-1.036-0.934-0.403-0.252-0.848-0.415-1.337-0.4892-0.403-0.0296-0.784-0.0518-1.144-0.0667-0.345-0.0296-0.726-0.0444-1.143-0.0444h-2.977v8.1608h3.969c0.259 0 0.489-0.0074 0.691-0.0222 0.201-0.0148 0.424-0.0371 0.668-0.0667 0.504-0.0593 0.957-0.2075 1.359-0.4447 0.403-0.2521 0.741-0.556 1.014-0.9117 0.274-0.3707 0.482-0.7783 0.626-1.2231 0.144-0.4595 0.216-0.9265 0.216-1.4009z" mask="url(#a)" stroke="#000" stroke-width="8"/>
<path d="m174.02 21.011c0 1.2305 0.202 2.3794 0.604 3.4467 0.403 1.0674 0.964 2.0013 1.683 2.8018 0.733 0.7857 1.596 1.4084 2.588 1.8679 0.993 0.4448 2.085 0.6671 3.279 0.6671s2.287-0.2223 3.279-0.6671c1.007-0.4595 1.869-1.0822 2.588-1.8679 0.734-0.8005 1.302-1.7344 1.705-2.8018 0.402-1.0673 0.604-2.2162 0.604-3.4467 0-1.2156-0.202-2.3571-0.604-3.4244-0.403-1.0822-0.971-2.0236-1.705-2.8241-0.719-0.8005-1.581-1.4306-2.588-1.8901-0.992-0.4596-2.085-0.6894-3.279-0.6894s-2.286 0.2298-3.279 0.6894c-0.992 0.4595-1.855 1.0896-2.588 1.8901-0.719 0.8005-1.28 1.7419-1.683 2.8241-0.402 1.0673-0.604 2.2088-0.604 3.4244zm-8.326 0.0223c0-1.5714 0.194-3.0761 0.582-4.5141 0.388-1.4528 0.942-2.8092 1.661-4.0693 0.719-1.2749 1.575-2.4313 2.567-3.469 1.007-1.0377 2.121-1.9198 3.344-2.6462 1.222-0.74122 2.531-1.312 3.926-1.7122 1.409-0.41509 2.876-0.62263 4.4-0.62263 1.51 0 2.97 0.20754 4.379 0.62263 1.409 0.40026 2.725 0.97101 3.948 1.7122 1.222 0.7264 2.336 1.6085 3.343 2.6462 1.007 1.0377 1.862 2.1941 2.567 3.469 0.719 1.2601 1.273 2.6165 1.661 4.0693 0.403 1.438 0.604 2.9427 0.604 4.5141s-0.201 3.0835-0.604 4.5363c-0.388 1.4379-0.942 2.787-1.661 4.047-0.705 1.2453-1.56 2.3868-2.567 3.4245-1.007 1.0229-2.121 1.905-3.343 2.6462-1.223 0.7412-2.539 1.3119-3.948 1.7122s-2.869 0.6004-4.379 0.6004c-1.524 0-2.991-0.2001-4.4-0.6004-1.395-0.4003-2.704-0.971-3.926-1.7122-1.223-0.7412-2.337-1.6233-3.344-2.6462-0.992-1.0377-1.848-2.1792-2.567-3.4245-0.719-1.26-1.273-2.6091-1.661-4.047-0.388-1.4528-0.582-2.9649-0.582-4.5363z" mask="url(#a)" stroke="#000" stroke-width="8"/>
<path d="m210.07 21.011c0 1.2305 0.202 2.3794 0.604 3.4467 0.403 1.0674 0.964 2.0013 1.683 2.8018 0.733 0.7857 1.596 1.4084 2.588 1.8679 0.993 0.4448 2.086 0.6671 3.279 0.6671 1.194 0 2.287-0.2223 3.279-0.6671 1.007-0.4595 1.869-1.0822 2.588-1.8679 0.734-0.8005 1.302-1.7344 1.705-2.8018 0.402-1.0673 0.604-2.2162 0.604-3.4467 0-1.2156-0.202-2.3571-0.604-3.4244-0.403-1.0822-0.971-2.0236-1.705-2.8241-0.719-0.8005-1.581-1.4306-2.588-1.8901-0.992-0.4596-2.085-0.6894-3.279-0.6894-1.193 0-2.286 0.2298-3.279 0.6894-0.992 0.4595-1.855 1.0896-2.588 1.8901-0.719 0.8005-1.28 1.7419-1.683 2.8241-0.402 1.0673-0.604 2.2088-0.604 3.4244zm-8.326 0.0223c0-1.5714 0.194-3.0761 0.582-4.5141 0.389-1.4528 0.942-2.8092 1.661-4.0693 0.719-1.2749 1.575-2.4313 2.567-3.469 1.007-1.0377 2.121-1.9198 3.344-2.6462 1.222-0.74122 2.531-1.312 3.926-1.7122 1.409-0.41509 2.876-0.62263 4.4-0.62263 1.51 0 2.97 0.20754 4.379 0.62263 1.409 0.40026 2.725 0.97101 3.948 1.7122 1.222 0.7264 2.336 1.6085 3.343 2.6462 1.007 1.0377 1.862 2.1941 2.567 3.469 0.719 1.2601 1.273 2.6165 1.661 4.0693 0.403 1.438 0.604 2.9427 0.604 4.5141s-0.201 3.0835-0.604 4.5363c-0.388 1.4379-0.942 2.787-1.661 4.047-0.705 1.2453-1.56 2.3868-2.567 3.4245-1.007 1.0229-2.121 1.905-3.343 2.6462-1.223 0.7412-2.539 1.3119-3.948 1.7122s-2.869 0.6004-4.379 0.6004c-1.524 0-2.991-0.2001-4.4-0.6004-1.395-0.4003-2.704-0.971-3.926-1.7122-1.223-0.7412-2.337-1.6233-3.344-2.6462-0.992-1.0377-1.848-2.1792-2.567-3.4245-0.719-1.26-1.272-2.6091-1.661-4.047-0.388-1.4528-0.582-2.9649-0.582-4.5363z" mask="url(#a)" stroke="#000" stroke-width="8"/>
<path d="m241.07 5.4676c0.028-0.26685 0.129-0.49663 0.302-0.68934 0.172-0.19272 0.417-0.28908 0.733-0.28908h7.464c0.532 0 0.877 0.28167 1.035 0.845l5.867 20.191 5.911-20.191c0.201-0.56333 0.568-0.845 1.1-0.845h7.377c0.259 0 0.489 0.09636 0.691 0.28908 0.215 0.17789 0.338 0.40767 0.366 0.68934 0.504 5.2183 1.014 10.399 1.532 15.543 0.532 5.1293 1.05 10.303 1.553 15.521v0.1112c0 0.5781-0.316 0.8672-0.949 0.8672h-6.105c-0.661 0-1.006-0.3261-1.035-0.9784l-1.877-17.189-4.853 17.3c-0.029 0.1482-0.137 0.3261-0.324 0.5336-0.172 0.2076-0.345 0.3114-0.518 0.3114h-5.673c-0.172 0-0.359-0.0964-0.561-0.2891-0.187-0.2076-0.287-0.3929-0.302-0.5559l-4.853-17.256-1.877 17.145c-0.029 0.6523-0.381 0.9784-1.057 0.9784h-6.104c-0.619 0-0.928-0.3261-0.928-0.9784l3.085-31.065z" mask="url(#a)" stroke="#000" stroke-width="8"/>
<defs>
<linearGradient id="b" x1="139.5" x2="139.5" y1="4" y2="38" gradientUnits="userSpaceOnUse">
<stop stop-color="#FEFEFE" offset=".13542"/>
<stop stop-color="#EFEFEF" offset=".63542"/>
<stop stop-color="#E1E1E1" offset="1"/>
</linearGradient>
</defs>
</svg>
