<svg fill="none" viewBox="0 0 207 199" xmlns="http://www.w3.org/2000/svg">
<path d="m4 131.91c0 11.564 4.8093 27.461 19.895 40.41 15.071 12.938 39.988 22.59 79.605 22.59 39.617 0 64.534-9.652 79.605-22.59 15.086-12.949 19.895-28.846 19.895-40.41 0-10.992-2.216-22.764-5.294-33.025-2.857-9.523-6.552-18.059-10.154-23.617 1.127-27.655-1.291-44.301-5.183-54.519-1.997-5.2409-4.418-8.8896-7.034-11.449-2.639-2.5814-5.302-3.8847-7.504-4.6618-3.391-1.1972-7.412-0.55015-10.996 0.60527-3.749 1.2089-7.779 3.2246-11.611 5.669-6.429 4.1009-12.93 9.8202-16.692 15.777-8.121-2.0122-19.224-2.7796-25.032-2.7796-5.8081 0-16.91 0.7674-25.032 2.7796-3.7621-5.9566-10.263-11.676-16.691-15.777-3.832-2.4445-7.862-4.4602-11.611-5.669-3.5836-1.1554-7.6048-1.8024-10.996-0.60527-2.2015 0.77708-4.865 2.0804-7.5034 4.6618-2.6161 2.5595-5.0373 6.2082-7.0337 11.449-3.8923 10.218-6.3103 26.864-5.1836 54.519-3.602 5.5579-7.2973 14.094-10.154 23.617-3.0781 10.261-5.2937 22.033-5.2937 33.025z" fill="url(#a)" stroke="#000" stroke-linejoin="round" stroke-width="8"/>
<path d="m45.9 125.34 0.1168 0.487c0.2119-0.051 0.3665-0.234 0.382-0.451 0.0154-0.217-0.1118-0.42-0.3144-0.5l-0.1844 0.464zc0.1168 0.487 0.1167 0.487 0.1166 0.487h-4e-4 -0.0012l-0.0041 1e-3 -0.015 4e-3 -0.0565 0.013c-0.0494 0.011-0.1219 0.027-0.2165 0.048-0.1891 0.04-0.4662 0.098-0.8216 0.164-0.7107 0.134-1.735 0.306-2.9956 0.461-2.5196 0.31-5.9905 0.554-9.79 0.283-3.7996-0.27-7.2011-1.002-9.6515-1.665-1.2259-0.332-2.2156-0.648-2.9002-0.88-0.3424-0.117-0.6086-0.213-0.79-0.28-0.0907-0.033-0.1603-0.06-0.2076-0.078l-0.0541-0.021-0.0143-6e-3 -0.0039-1e-3h-0.0011l-4e-4 -1e-3c-1e-4 0-2e-4 0 0.1842-0.464m27.223 1.935c0.1844-0.464 0.1843-0.464 0.1842-0.464l-4e-4 -1e-3h-0.0011l-0.0039-1e-3 -0.0143-6e-3 -0.0541-0.021c-0.0473-0.018-0.1169-0.045-0.2076-0.078-0.1814-0.067-0.4476-0.163-0.79-0.28-0.6846-0.232-1.6743-0.548-2.9002-0.88-2.4504-0.663-5.8519-1.395-9.6515-1.665-3.7995-0.271-7.2704-0.027-9.79 0.283-1.2606 0.155-2.2849 0.327-2.9956 0.461-0.3554 0.066-0.6325 0.124-0.8216 0.164-0.0946 0.021-0.1671 0.037-0.2165 0.048l-0.0565 0.013-0.015 4e-3 -0.0041 1e-3h-0.0012-3e-4c-2e-4 0-3e-4 0 0.1165 0.487m0 0-0.1168-0.487c-0.2119 0.051-0.3665 0.234-0.3819 0.451-0.0155 0.217 0.1117 0.42 0.3143 0.5l0.1844-0.464z" fill="#000" stroke="#000" stroke-linejoin="round"/>
<path d="m45.161 134.33 0.2871 0.409c0.1747-0.123 0.2524-0.342 0.1935-0.548-0.0589-0.205-0.2416-0.35-0.4547-0.361l-0.0259 0.5zc0.2871 0.409 0.287 0.409 0.2869 0.409h-3e-4l-1e-3 1e-3 -0.0033 2e-3 -0.0119 9e-3 -0.0446 0.03c-0.039 0.027-0.0963 0.066-0.1712 0.115-0.1498 0.1-0.3699 0.243-0.6543 0.421-0.5687 0.355-1.3951 0.847-2.4311 1.399-2.0706 1.104-4.9859 2.451-8.3598 3.421-3.374 0.969-6.5598 1.375-8.9004 1.539-1.1711 0.083-2.1327 0.104-2.8031 0.105-0.3353 1e-3 -0.5979-4e-3 -0.7776-9e-3 -0.0899-2e-3 -0.159-4e-3 -0.2062-6e-3l-0.0542-3e-3h-0.0144-4e-3 -0.0012l-4e-4 -1e-3c-1e-4 0-2e-4 0 0.0257-0.499m24.126-6.933c0.0259-0.5 0.0258-0.5 0.0257-0.5h-4e-4 -0.0012-4e-3l-0.0144-1e-3 -0.0542-2e-3c-0.0471-2e-3 -0.1163-4e-3 -0.2062-7e-3 -0.1797-4e-3 -0.4423-9e-3 -0.7776-9e-3 -0.6704 2e-3 -1.632 0.023-2.8031 0.105-2.3406 0.164-5.5264 0.57-8.9004 1.54-3.3739 0.97-6.2892 2.317-8.3598 3.421-1.036 0.552-1.8624 1.044-2.4311 1.399-0.2844 0.178-0.5045 0.321-0.6543 0.42-0.0749 0.05-0.1322 0.089-0.1712 0.115l-0.0446 0.031-0.0119 8e-3 -0.0033 3e-3h-9e-4l-4e-4 1e-3c-1e-4 0-2e-4 0 0.2869 0.409m0 0-0.2871-0.409c-0.1747 0.122-0.2524 0.342-0.1935 0.547 0.059 0.205 0.2416 0.35 0.4547 0.361l0.0259-0.499z" fill="#000" stroke="#000" stroke-linejoin="round"/>
<path d="m49.599 141.24 0.4221 0.268c0.1151-0.181 0.1017-0.416-0.0333-0.582-0.1351-0.167-0.3615-0.229-0.5628-0.155l0.174 0.469zc0.4221 0.268 0.4221 0.268 0.422 0.268l-2e-4 1e-3 -0.0028 4e-3 -8e-3 0.012-0.03 0.047c-0.0262 0.04-0.065 0.099-0.1161 0.175-0.102 0.152-0.2532 0.374-0.4515 0.652-0.3965 0.558-0.9818 1.346-1.7406 2.274-1.5165 1.856-3.7311 4.277-6.5207 6.534s-5.6198 3.917-7.7509 5.013c-1.0663 0.548-1.9594 0.956-2.5874 1.228-0.314 0.135-0.5619 0.237-0.7322 0.305-0.0851 0.034-0.1508 0.06-0.1957 0.077l-0.0516 0.02-0.0137 5e-3 -0.0038 1e-3 -0.0011 1e-3h-4e-4c-1e-4 0-2e-4 0-0.1742-0.469m19.959-16.148c-0.174-0.469-0.1741-0.469-0.1742-0.469l-4e-4 1e-3h-0.0011l-0.0038 1e-3 -0.0137 6e-3 -0.0516 0.019c-0.0449 0.017-0.1106 0.043-0.1957 0.077-0.1703 0.068-0.4182 0.17-0.7322 0.306-0.628 0.271-1.5211 0.679-2.5874 1.227-2.1311 1.096-4.9613 2.756-7.7509 5.013s-5.0042 4.678-6.5207 6.534c-0.7588 0.928-1.3441 1.716-1.7406 2.274-0.1983 0.279-0.3495 0.5-0.4515 0.652-0.0511 0.076-0.0899 0.135-0.1161 0.176l-0.03 0.046-8e-3 0.012-0.0021 4e-3 -7e-4 1e-3h-2e-4c-1e-4 0-1e-4 0 0.422 0.268m0 0-0.4221-0.268c-0.1151 0.181-0.1017 0.416 0.0333 0.583 0.1351 0.167 0.3615 0.229 0.5628 0.154l-0.174-0.469z" fill="#000" stroke="#000" stroke-linejoin="round"/>
<path d="m161.1 125.34-0.117 0.487c-0.212-0.051-0.367-0.234-0.382-0.451-0.016-0.217 0.112-0.42 0.314-0.5l0.185 0.464zl-0.117 0.487h2e-3l4e-3 1e-3 0.015 4e-3 0.056 0.013c0.05 0.011 0.122 0.027 0.217 0.048 0.189 0.04 0.466 0.098 0.821 0.164 0.711 0.134 1.735 0.306 2.996 0.461 2.52 0.31 5.99 0.554 9.79 0.283 3.799-0.27 7.201-1.002 9.651-1.665 1.226-0.332 2.216-0.648 2.901-0.88 0.342-0.117 0.608-0.213 0.79-0.28 0.09-0.033 0.16-0.06 0.207-0.078l0.054-0.021 0.015-6e-3 3e-3 -1e-3h2e-3v-1e-3l-0.184-0.464m-27.223 1.935-0.185-0.464 1e-3 -1e-3h1e-3l4e-3 -1e-3 0.014-6e-3 0.054-0.021c0.048-0.018 0.117-0.045 0.208-0.078 0.181-0.067 0.447-0.163 0.79-0.28 0.684-0.232 1.674-0.548 2.9-0.88 2.45-0.663 5.852-1.395 9.651-1.665 3.8-0.271 7.271-0.027 9.791 0.283 1.26 0.155 2.284 0.327 2.995 0.461 0.356 0.066 0.633 0.124 0.822 0.164 0.094 0.021 0.167 0.037 0.216 0.048l0.057 0.013 0.015 4e-3 4e-3 1e-3h1e-3s1e-3 0-0.116 0.487m0 0 0.117-0.487c0.212 0.051 0.366 0.234 0.382 0.451 0.015 0.217-0.112 0.42-0.315 0.5l-0.184-0.464z" fill="#000" stroke="#000" stroke-linejoin="round"/>
<path d="m161.84 134.33-0.287 0.409c-0.175-0.123-0.252-0.342-0.193-0.548 0.058-0.205 0.241-0.35 0.454-0.361l0.026 0.5zc-0.287 0.409-0.287 0.409-0.287 0.409h1e-3l1e-3 1e-3 3e-3 2e-3 0.012 9e-3 0.044 0.03c0.039 0.027 0.097 0.066 0.172 0.115 0.149 0.1 0.369 0.243 0.654 0.421 0.568 0.355 1.395 0.847 2.431 1.399 2.07 1.104 4.986 2.451 8.36 3.421 3.374 0.969 6.56 1.375 8.9 1.539 1.171 0.083 2.133 0.104 2.803 0.105 0.335 1e-3 0.598-4e-3 0.778-9e-3 0.09-2e-3 0.159-4e-3 0.206-6e-3l0.054-3e-3h0.015 4e-3 1e-3v-1e-3l-0.025-0.499m-24.127-6.933-0.026-0.5h1e-3 1e-3 4e-3l0.014-1e-3 0.055-2e-3c0.047-2e-3 0.116-4e-3 0.206-7e-3 0.18-4e-3 0.442-9e-3 0.777-9e-3 0.671 2e-3 1.632 0.023 2.803 0.105 2.341 0.164 5.527 0.57 8.901 1.54s6.289 2.317 8.36 3.421c1.036 0.552 1.862 1.044 2.431 1.399 0.284 0.178 0.504 0.321 0.654 0.42 0.075 0.05 0.132 0.089 0.171 0.115l0.045 0.031 0.012 8e-3 3e-3 3e-3h1e-3v1e-3s1e-3 0-0.286 0.409m0 0 0.287-0.409c0.174 0.122 0.252 0.342 0.193 0.547s-0.241 0.35-0.455 0.361l-0.025-0.499z" fill="#000" stroke="#000" stroke-linejoin="round"/>
<path d="m157.4 141.24-0.422 0.268c-0.115-0.181-0.102-0.416 0.033-0.582 0.135-0.167 0.362-0.229 0.563-0.155l-0.174 0.469zl-0.422 0.268v1e-3l1e-3 1e-3 0.01 0.015 0.03 0.047c0.026 0.04 0.065 0.099 0.116 0.175 0.102 0.152 0.253 0.374 0.452 0.652 0.396 0.558 0.982 1.346 1.74 2.274 1.517 1.856 3.731 4.277 6.521 6.534s5.62 3.917 7.751 5.013c1.066 0.548 1.959 0.956 2.587 1.228 0.314 0.135 0.562 0.237 0.732 0.305 0.086 0.034 0.151 0.06 0.196 0.077l0.052 0.02 0.014 5e-3 3e-3 1e-3 1e-3 1e-3h1e-3l0.174-0.469m-19.959-16.148 0.174-0.469 1e-3 1e-3h1e-3l4e-3 1e-3 0.013 6e-3 0.052 0.019c0.045 0.017 0.111 0.043 0.196 0.077 0.17 0.068 0.418 0.17 0.732 0.306 0.628 0.271 1.521 0.679 2.587 1.227 2.131 1.096 4.962 2.756 7.751 5.013 2.79 2.257 5.004 4.678 6.521 6.534 0.759 0.928 1.344 1.716 1.74 2.274 0.199 0.279 0.35 0.5 0.452 0.652 0.051 0.076 0.09 0.135 0.116 0.176l0.03 0.046 8e-3 0.012 2e-3 4e-3 1e-3 1e-3 -0.422 0.268m0 0 0.422-0.268c0.115 0.181 0.102 0.416-0.033 0.583s-0.362 0.229-0.563 0.154l0.174-0.469z" fill="#000" stroke="#000" stroke-linejoin="round"/>
<path d="m35.195 98.014c-0.1917 0.1473-0.2506 0.4105-0.14 0.6254 0.1107 0.2148 0.3591 0.3198 0.5903 0.2494 19.161-5.8365 38.927-2.3211 49.978 10.35 0.1511 0.174 0.4009 0.222 0.6054 0.116 0.2045-0.105 0.3109-0.336 0.2579-0.559-1.8137-7.655-9.2134-14.534-18.818-17.41-9.6332-2.8841-21.546-1.7677-32.473 6.6283zm136.16 0.8748c0.231 0.0704 0.48-0.0346 0.591-0.2494 0.11-0.2149 0.051-0.4781-0.14-0.6254-10.928-8.396-22.84-9.5124-32.473-6.6283-9.605 2.8756-17.005 9.755-18.819 17.41-0.053 0.223 0.054 0.454 0.258 0.559 0.205 0.106 0.455 0.058 0.606-0.116 11.05-12.671 30.816-16.186 49.977-10.35z" fill="#000" stroke="#000" stroke-linejoin="round"/>
<path d="m99.73 134.49-8.2547-9.245c-1.1507-1.289-0.2359-3.332 1.4919-3.332h21.067c1.727 0 2.642 2.043 1.491 3.332l-8.254 9.245c-0.818 0.916-1.271 2.102-1.271 3.33v2.593c0 4.518 6.895 12.91 15 13 5.351 0.059 13.229-2.252 16-13 2 12-7 20-17 20-7 0-15.5-4-16.5-9.5-1 5.5-9.4995 9.5-16.5 9.5-10 0-19-8-17-20 2.7714 10.748 10.65 13.059 16 13 8.1056-0.09 15-8.482 15-13v-2.593c0-1.228-0.452-2.414-1.2698-3.33z" fill="#000" stroke="#000" stroke-linejoin="round"/>
<defs>
<radialGradient id="a" cx="0" cy="0" r="1" gradientTransform="translate(104 72.5) rotate(90.242) scale(118.41 123.65)" gradientUnits="userSpaceOnUse">
<stop stop-color="#fff" offset=".34375"/>
<stop stop-color="#F6F6F6" offset=".78125"/>
<stop stop-color="#DBDBDB" offset="1"/>
</radialGradient>
</defs>
</svg>
